<?xml version="1.0" encoding="utf-8"?>
<!-- Generator: Adobe Illustrator 22.1.0, SVG Export Plug-In . SVG Version: 6.00 Build 0)  -->
<svg version="1.1" id="_x34_" xmlns="http://www.w3.org/2000/svg" xmlns:xlink="http://www.w3.org/1999/xlink" x="0px" y="0px"
	 viewBox="0 0 850 815" style="enable-background:new 0 0 850 815;" xml:space="preserve">
<style type="text/css">
	.st0{fill:#FFFFFF;}
	.st1{fill:#F4CA7F;}
	.st2{fill:#FFF7A9;}
	.st3{fill:#AA8765;}
	.st4{fill:#91BDED;}
	.st5{fill:#4D261E;}
	.st6{fill:#4C251D;}
	.st7{fill:#4D251D;}
	.st8{fill:#FF9B8B;}
	.st9{fill:#48251D;}
</style>
<g>
	<path class="st0" d="M200.258,583.432c11.69,16.346,32.98,32.83,55.292,34.505c-1.438,3.069-2.767,6.198-4.041,9.352
		c-1.963-1.151-4.186-1.841-6.533-1.841c-10.048,0-17.19,11.375-17.492,11.864c-7.907,12.813-12.671,28.422-13.778,45.139
		c-0.489,7.393-0.023,14.904,1.391,22.325l0.108,0.662c0.6,3.864,2.43,15.619,13.502,17.407c0.801,0.13,1.586,0.19,2.344,0.19
		c0.003,0,0.003,0,0.003,0c2.399,0,4.715-0.619,6.788-1.731c0.314,3.298,0.682,6.59,1.166,9.865
		c0.093,0.639,0.173,1.328,0.258,2.046c0.597,5.127,1.501,12.875,7.283,18.461c4.282,4.133,8.663,5.001,11.582,5.001
		c1.983,0,3.911-0.394,5.713-1.147c2.608-0.046,5.4-0.312,7.487-0.508c0.906-0.086,1.671-0.167,2.002-0.185h22.579
		c2.07,1.171,4.387,1.795,6.819,1.795c2.368,0,4.747-0.617,6.941-1.795h15.284c1.311,0.237,2.373,0.237,2.934,0.237
		c1.101,0,2.43-0.108,3.48-0.208l0.323-0.029h154.793c0.634,0,1.357,0.066,2.104,0.123c1.433,0.107,2.922,0.208,4.347,0.208
		c1.342,0,2.585-0.083,3.752-0.255c0.34,0.025,0.666,0.037,0.971,0.037c0.609,0,1.19-0.04,1.739-0.113h46.156
		c2.13,1.121,4.512,1.717,6.981,1.717c2.495,0,4.871-0.607,6.966-1.717h24.261c0.654,0.016,1.654,0.13,2.817,0.245
		c2.025,0.198,4.432,0.435,6.826,0.531c1.803,0.697,3.701,1.056,5.629,1.056c9.578,0,16.309-8.607,17.266-16.783
		c2.925-22.499,1.795-45.346-3.426-69.554c3.58-0.197,6.853-1.563,9.263-3.998c2.487-2.512,3.874-5.899,3.925-9.568
		c0.357-10.438-1.875-21.393-6.462-31.689l-0.292-0.671c-2.736-6.291-5.944-12.629-12.4-14.975
		c-1.909-0.692-3.818-1.042-5.678-1.042c-0.264,0-0.518,0.032-0.776,0.044c14.655-12.893,25.775-30.253,32.309-49.592
		c3.927,4.723,8.586,5.473,11.056,5.473c7.267,0,13.361-5.757,15.164-14.348c4.707-22.632,3.75-46.127-2.849-69.834
		c-2.855-10.244-6.949-20.157-12.174-29.468c-0.159-0.282-0.351-0.67-0.584-1.124c-2.86-5.593-8.184-16.003-18.555-16.003
		c-4.899,0-9.186,2.184-11.766,5.99c-0.088,0.13-0.156,0.263-0.238,0.393c-13.221-18.904-30.887-35.888-52.092-49.561
		c-5.604-3.613-34.348-21.639-49.716-21.639c-0.915,0-1.804,0.056-2.665,0.166c0.564-21.882,0.159-54.945-24.578-66.97
		c-5.53-2.688-11.361-4.051-17.334-4.051c-13.664,0-25.509,6.855-34.521,15.771c-2.497-3.41-5.5-6.343-8.98-8.747
		c-5.741-3.966-12.129-5.976-18.99-5.976c-8.87,0-18.06,3.436-26.569,9.94c-10.232,7.819-17.966,18.172-22.358,29.935
		c-1.951,5.212-4.979,14.791-5.009,24.055c-0.961,0.204-1.918,0.43-2.875,0.679c-11.704,3.086-23.142,6.946-34.217,11.489
		c-0.369-1.078-0.796-1.95-1.139-2.523c-2.574-4.312-7.227-6.786-12.768-6.786c-2.713,0-5.618,0.614-8.08,1.685
		c-18.625,7.886-36.339,18.556-54.151,32.622c-7.521,5.938-14.599,12.371-21.029,19.113c-0.525,0.549-1.195,1.176-1.92,1.864
		c-4.216,4.005-9.467,8.989-10.965,15.651c-1.467,6.522,0.564,10.81,2.523,13.259c1.153,1.437,2.583,2.58,4.18,3.415
		C183.375,491.034,171.121,542.688,200.258,583.432z"/>
	<path class="st0" d="M40.347,223.965c3.741,0,7.649-0.574,11.619-1.706c8.535-2.434,16.98-5.226,25.147-7.927
		c5.749-1.899,11.33-3.746,16.883-5.46c-0.181,12.59-0.275,25.381-0.005,38.075c0.02,0.933,0.025,1.883,0.032,2.84
		c0.028,4.12,0.059,8.789,1.058,13.544c2.903,13.746,15.032,22.628,30.899,22.628c7.672,0,15.23-2.074,21.282-5.842
		c14.085-8.765,15.719-26.447,16.911-39.357c0.227-2.464,0.436-4.8,0.737-6.882c0.237-1.646,0.472-3.293,0.71-4.94
		c3.432,3.504,8.088,5.476,13.437,5.476c8.082,0,14.851-4.56,17.385-6.521c17.249-13.343,31.626-31.432,44.591-48.994
		c2.372-3.213,5.491-7.456,8.602-12.307c-0.614,8.712-0.572,26.752,15.352,33.552c4.098,1.75,9.187,2.638,15.123,2.638
		c8.861,0,18.243-1.917,24.603-3.859c-2.351,5.313-4.497,10.715-6.343,16.224c-1.722,5.134-3.586,12.795,0.124,20.027
		c3.786,7.385,11.307,10.544,18.167,12.661c6.623,2.044,12.412,3.038,17.694,3.038c10.834,0,20.064-4.304,26.69-12.448
		c4.449-5.465,8.3-11.242,12.024-16.826l2.432-3.634c6.318-9.377,12.815-19.205,19.214-29.396c0.612,2.287,1.309,4.632,2.167,7.093
		c1.541,4.43,4.412,12.677,15.439,12.677c0.593,0,1.281-0.02,2.084-0.048l1.346-0.04c1.354-0.033,3.185-0.191,5.231-0.382
		c1.339-0.126,2.78-0.26,4.159-0.351c-0.028,0.169-0.36,2.214-0.36,2.214c-0.444,2.944-0.917,5.885-1.39,8.826
		c-0.96,5.984-1.954,12.171-2.707,18.402l-0.091,0.729c-0.802,6.515-2.141,17.419,4.593,25.127c2.535,2.9,7.165,6.378,14.834,6.469
		c0.045,0.002,0.257,0.002,0.257,0.002c14.013,0,23.817-13.635,29.673-21.781c0.549-0.763,1.059-1.473,1.53-2.106
		c2.112-2.851,3.789-5.738,5.408-8.532c2.24-3.859,4.356-7.504,6.72-9.212c8.805-6.354,16.541-13.788,22.949-20.222l1.062-1.064
		c6.4-6.396,14.366-14.356,16.419-25.996c2.311-13.085-1.898-21.424-5.831-26.116c-9.778-11.655-26.959-13.225-42.478-13.225
		c-2.563,0-5.043,0.044-7.363,0.085c-1.909,0.035-3.698,0.068-5.324,0.068c-2.206,0-4.44-0.015-6.691-0.032
		c-2.348-0.015-4.715-0.031-7.091-0.031c-9.702,0-19.979,0.264-30.018,1.97c1.09-3.499,1.872-7.161,2.175-11.095
		c1.994,0.943,4.274,1.404,6.915,1.404c1.654,0,3.24-0.169,4.511-0.304c0.388-0.043,0.742-0.085,0.873-0.096
		c1.512,0,3.149,0.081,4.845,0.16c2.198,0.102,4.474,0.204,6.726,0.204c5.644,0,10.059-0.654,13.888-2.059
		c12.689-4.655,15.247-17.928,16.617-25.059l0.187-0.964c0.249-1.281,0.536-2.625,0.827-4.007
		c2.489-11.772,5.587-26.423-2.931-36.928c-3.281-4.05-9.639-8.876-21.366-8.876c-3.364,0.023-6.935,0.178-10.472,0.776
		c-4.927-5.656-12.981-8.929-23.094-8.929c-9.62,0.096-27.526,0.272-35.767,14.734c-2.608,4.576-4.443,9.595-5.774,14.745
		c-6.177-4.951-16.08-7.445-29.647-7.445c-1.841,0-3.596,0.033-5.188,0.063c-1.189,0.023-2.276,0.044-3.185,0.044l-0.436-0.001
		c-6.091,0-24.626,0-31.208,17.063c-2.585,6.692-2.752,13.656-2.121,20.165c-7.283,0.817-14.651,1.87-21.992,3.559l-0.757,0.171
		c-4.426,1.009-10.487,2.389-15.535,6.388c-2.564,2.027-4.729,4.501-6.59,7.269c-1.728-5.362-5.738-12.036-15.063-16.438
		c-4.959-2.341-10.758-3.478-17.736-3.478c-5.817,0-11.557,0.779-16.621,1.467c-1.775,0.241-3.489,0.474-5.095,0.654
		c-7.028,0.783-14.354,1.724-22.703,2.918c0.898-5.019,1.844-10.185,2.824-15.312c1.668-8.753,0.309-15.857-4.041-21.113
		c-2.793-3.374-8.097-7.397-17.623-7.397c-10.665,0.098-21.056,1.797-31.105,3.44l-4.554,0.738
		c-2.685,0.428-5.372,0.874-8.052,1.329c-8.02,1.361-13.024,4.106-14.862,14.111l-0.195,1.053c-0.915,4.785-1.666,9.7-2.391,14.451
		c-1.24,8.145-2.52,16.54-4.632,24.029c-1.359,0.31-2.96,0.584-4.364,0.824c-1.948,0.333-3.846,0.666-5.556,1.077
		c-11.546,2.771-23.088,5.57-34.611,8.448c-2.087,0.521-4.183,1.03-6.281,1.539c-7.247,1.759-14.74,3.579-22.123,5.961
		c-17.623,5.689-26.733,22.532-23.215,42.908c4.114,23.859,18.523,38.682,37.598,38.683
		C40.347,223.965,40.347,223.965,40.347,223.965z"/>
	<path class="st0" d="M551.285,224.31c3.764,11.257,8.974,23.85,19.096,31.92c5.364,4.275,11.863,6.535,18.79,6.535
		c7.796,0,16.048-2.747,24.526-8.163c1.042-0.665,25.569-16.538,27.509-36.082c0.719-7.254-1.829-14.084-7.175-19.23
		c-6.214-5.984-13.237-6.623-18.149-6.881c-0.581-2.617-1.082-5.097-1.521-7.529c-0.3-1.651-0.404-4.627-0.507-7.506
		c-0.388-10.879-1.294-36.357-24.66-36.357c-5.217,0-10.331,0.864-14.845,1.626c-1.849,0.313-3.686,0.624-5.485,0.862
		c-0.521,0.07-1.212,0.113-1.982,0.171c-5.907,0.445-13.259,1-17.668,6.692c-3.039,3.92-3.781,9.101-4.384,14.975
		c-0.053,0.524-0.096,0.974-0.141,1.305c-0.849,6.248-1.053,12.893-0.623,20.309C544.795,199.577,547.225,212.143,551.285,224.31z"
		/>
	<path class="st0" d="M646.204,145.233c-7.136,5.4-8.861,9.872-7.102,18.406l0.082,0.406c1.286,6.273,2.257,11.971,2.973,17.414
		c1.091,8.309,1.53,16.615,1.997,25.408c0.152,2.877,0.305,5.757,0.484,8.639c1.578,25.785,17.467,28.571,24.226,28.572
		c0.003,0,0.003,0,0.003,0c1.243,0,2.535-0.084,3.846-0.252c29.664-3.801,30.873-40.694,31.329-54.582
		c0.028-0.897,0.076-1.943,0.13-3.11c0.796-17.437,0.778-36.953-9.6-47.817c-4.455-4.661-10.277-7.125-16.841-7.125
		C664.756,131.192,653.602,139.635,646.204,145.233z"/>
	<path class="st0" d="M787.382,202.9c1.291-4.103,1.826-8.262,2.299-11.932c0.187-1.445,0.368-2.876,0.601-4.254l0.736-4.339
		c3.249-19.131,6.604-38.912,9.51-58.486c0.133-0.896,0.289-1.807,0.448-2.721c1.271-7.37,3.917-22.707-11.11-30.733
		c-9.773-5.218-21.5-5.936-32.711-5.936c-1.45,0-8.192,0.039-8.192,0.039c-1.155,0-2.288-0.008-3.387-0.033
		c-0.091-0.001-0.175-0.003-0.263-0.003c-5.78,0-10.7,4.269-11.489,10.023c-2.7,19.655-4.707,36.89-6.134,52.691
		c-1.09,12.041-2.248,26.064-2.2,40.099c0.02,4.768,0.263,9.553,0.725,14.222c0.104,1.053,0.257,2.033,0.456,2.946
		c-6.576,6.99-10.427,16.432-9.966,25.97c0.813,16.793,14.159,34.773,32.736,34.773c1.193,0,2.404-0.076,3.6-0.228
		c13.689-1.735,24.272-11.396,28.307-25.843c2.447-8.767,2.048-17.769-0.776-25.445C784.465,210.19,786.416,205.969,787.382,202.9z"
		/>
	<g>
		<path class="st1" d="M573.398,609.912c6.728,12.989,11.613,27.088,15.68,41.1c4.229,14.573,7.357,29.477,9.279,44.531
			c1.093,8.57,1.802,17.188,2.097,25.823c0.111,3.239,2.005,20.264-0.237,21.874c-2.586,1.857-13.361,0-16.392,0
			c-13.097,0-26.195,0-39.292,0c-77.798,0-155.596,0-233.394,0c-12.602,0-25.203,0-37.804,0c-2.285,0-12.454,1.581-14.313,0
			c-1.562-1.328-0.942-10.961-1.056-12.812c-0.646-10.581-0.841-21.194-0.57-31.79c0.697-27.23,3.886-56.043,15.892-80.847
			c2.167-4.479,4.551-9.272,0.673-13.772c-3.136-3.64-9.343-3.604-13.699-3.796c-7.868-0.345-13.366-0.521-20.298-4.521
			c-16.367-9.443-27.937-26.789-32.953-44.726c-15.408-55.095,23.672-110.326,67.537-139.442
			c18.167-12.059,38.114-21.393,58.702-28.501c7.241-2.5,14.579-4.729,22-6.631c2.458-0.629,8.723-0.843,10.701-2.457
			c1.827-1.491,1.848-6.249,2.457-8.831c2.175-9.211,5.167-18.433,9.838-26.7c4.643-8.217,11.509-16.107,21.438-17.195
			c11.104-1.218,19.852,5.428,24.644,14.978c2.431,4.844,4.026,10.23,4.737,15.604c2.631-9.668,8.129-19.217,15.793-25.723
			c11.015-9.349,29.788-13.046,39.673-0.321c7.985,10.276,9.342,25.249,9.618,37.8c0.058,2.613-1.277,8.562-0.213,10.929
			c1.295,2.883,10.814,7.622,13.864,9.412c7.22,4.236,15.92,6.519,23.566,9.905c13.859,6.138,27.278,13.416,39.451,22.488
			c35.085,26.151,50.037,65.244,48.951,108.595c-0.476,18.992-4.788,38.726-15.674,54.599
			C595.776,591.611,581.994,598.054,573.398,609.912z"/>
		<path class="st2" d="M440.474,366.73c5.138-18.852,26.092-42.731,47.893-32.329c-8.069-20.623-31.208-20.915-46.105-6.791
			c-2.816,2.669-5.222,5.756-7.296,9.028c-0.901,1.42-2.281,3.172-2.728,4.803c-0.984,3.584-1.194,0.448,0.289,4.409
			C435.229,353.065,439.423,358.728,440.474,366.73z"/>
		<path class="st2" d="M287.56,627.298c0-3.569-0.474-7.143-3.434-9.471c-1.645-1.294-8.523-3.627-10.423-2.545
			c-2.381,1.357-4.241,9.18-5.169,11.613c-1.686,4.421-3.115,8.937-4.359,13.501c-4.866,17.853-6.892,36.441-7.552,54.896
			c-0.476,13.29-0.225,26.627,0.773,39.889c0.106,1.419-0.318,6.826,0.711,7.911c1.253,1.322,9.015,0.156,11.153,0.156
			C267.171,705.17,268.369,661.319,287.56,627.298z"/>
		<path class="st2" d="M228.841,489.063c20.24-41.747,60.7-69.404,102.725-86.21c13.113-5.243,26.633-9.63,40.4-12.805
			c1.124-0.259,5.298-0.433,6.121-1.298c1.927-2.025,2.22-10.794,2.97-13.522c4.935-17.948,19.266-49.854,43.523-36.533
			c-6.034-14.309-22.114-23.428-36.189-13.462c-10.271,7.273-15.433,20.805-18.885,32.403c-1.083,3.638-1.613,13.947-4.227,16.262
			c-2.674,2.367-12.11,2.784-15.544,3.731c-55.447,15.294-111.852,47.467-135.834,102.188
			c-15.571,35.531-16.034,79.389,14.057,107.512C208.808,557.12,213.896,519.887,228.841,489.063z"/>
		<path class="st3" d="M412.583,507.179c-26.009-0.742-52.54,2.948-78.207,6.679c-10.407,1.513-22.033,1.644-30.046-6.264
			c-6.321-6.238-8.429-15.562-8.726-24.155c-1.014-29.376,40.548-46.938,63.141-53.38c27.261-7.773,55.957-8.518,84.066-6.454
			c20.573,1.511,41.666,4.669,60.666,13.096c10.822,4.799,23.561,11.881,30.898,21.375c10.763,13.926,12.261,36.641,1.171,50.894
			c-11.657,14.981-35.811,7.565-51.757,5.64C460.182,511.759,436.387,507.86,412.583,507.179z"/>
		<path class="st0" d="M499.08,730.839c0,2.087,0.786,11.096-0.929,12.4c-0.409,0.311-1.675-0.137-2.172,0
			c-2.71,0.747-6.689,0-9.493,0c-11.873,0-23.745,0-35.618,0c-30.076,0-60.152,0-90.228,0c-9.765,0-19.531,0-29.297,0
			c-0.806,0-4.15,0.533-4.82,0c-2.024-1.611-0.813-13.471-0.731-15.955c0.19-5.792,0.837-11.566,1.966-17.25
			c8.185-41.252,43.029-76.633,86.782-75.454C464.685,635.932,499.08,683.376,499.08,730.839z"/>
		<path class="st3" d="M371.898,357.433c10.621-4.171,23.287-4.078,34.493-3.303c8.123,0.562,17.277,4.862,24.825,3.609
			c10.408-1.726,21.277-1.738,31.79-1.357c7.923,0.287,19.661-0.16,26.597,4.463c-0.912-14.295,2.048-38.779-16.803-41.945
			c-17.571-2.951-42.238,9.915-44.607,28.868c-7.694-11.245-18.835-34.416-35.617-27.316
			C378.393,326.453,373.771,343.342,371.898,357.433z"/>
		<path class="st4" d="M517.949,530.272c-2.062,5.773-4.771,12.763-4.11,19.004c0.574,5.42,5.625,9.236,10.844,5.649
			c5.035-3.46,3.288-12.219,1.514-16.936C525.634,536.488,519.687,525.406,517.949,530.272z"/>
		<path class="st5" d="M511.889,545.698c-3.71,9.311,6.931,17.944,14.485,10.408c3.354-3.347,3.424-8.023,2.631-12.393
			c-0.248-1.367-1.732-9.492-3.765-8.943c-4.876,1.313,5.002,18.257-4.972,19.599c-4.728,0.635-5.083-3.669-5.404-7.125
			C514.613,544.554,513.928,540.192,511.889,545.698z"/>
		<path class="st4" d="M331.49,583.684c-1.577,4.412-8.328,31.613,5.822,22.941c5.03-3.083,3.498-11.153,1.817-15.732
			C338.576,589.384,333.058,579.293,331.49,583.684z"/>
		<path class="st5" d="M325.895,597.924c-3.428,8.595,6.394,16.543,13.372,9.607c2.485-2.469,3.918-20.395-0.662-19.941
			c-0.841-0.275-0.616,15.42-2.47,17.059c-8.69,7.687-6.311-9.068-8.011-9.25C327.195,594.853,326.038,597.538,325.895,597.924z"/>
		<path class="st4" d="M481.93,656.306c-1.576,4.412-8.328,31.612,5.822,22.942c5.031-3.083,3.499-11.154,1.818-15.733
			C489.016,662.006,483.499,651.916,481.93,656.306z"/>
		<path class="st5" d="M476.335,670.547c-3.427,8.595,6.394,16.542,13.372,9.608c2.486-2.469,3.912-20.401-0.662-19.941
			c-0.836-0.274-0.617,15.421-2.469,17.059c-8.69,7.686-6.312-9.068-8.011-9.249C477.635,667.474,476.478,670.162,476.335,670.547z"
			/>
		<path class="st4" d="M282.527,508.601c-1.578,4.413-8.328,31.61,5.822,22.941c5.03-3.083,3.498-11.154,1.817-15.732
			C289.613,514.3,284.095,504.209,282.527,508.601z"/>
		<path class="st5" d="M276.932,522.841c-3.428,8.596,6.394,16.542,13.372,9.607c2.486-2.469,3.914-20.401-0.662-19.941
			c-0.836-0.274-0.618,15.421-2.47,17.059c-8.69,7.686-6.309-9.066-8.008-9.25C278.232,519.768,277.075,522.453,276.932,522.841z"/>
		<path class="st6" d="M350.09,374.741c-44.326,11.682-86.766,35.247-118.052,69.025c-32.049,34.603-52.702,90.469-22.345,132.919
			c11.595,16.213,35.231,33.472,56.41,29.105c2.621-0.541,8.665-1.675,7.063-5.496c-1.193-2.843-12.678-4.138-15.41-4.87
			c-10.628-2.847-20.151-7.617-28.186-15.262c-38.415-36.554-17.578-95.358,13.94-128.323
			c18.391-19.235,40.731-35.094,64.209-47.509c11.052-5.844,22.472-10.969,34.231-15.219c9.973-3.604,19.594-6.536,28.784-11.929
			c-3.65-3.938-10.276-8.757-8.28,0.879c0.758-1.647,1.515-3.292,2.274-4.939C359.837,372.882,354.82,373.509,350.09,374.741z"/>
		<path class="st6" d="M429.119,346.019c0.329-11.786-2.493-24.481-12.777-31.585c-10.493-7.249-22.569-3.512-31.924,3.637
			c-8.351,6.382-14.853,14.921-18.539,24.784c-2.336,6.251-8.328,26.817,0.129,30.771c8.835,4.131,8.882-16.261,10.477-20.877
			c3.315-9.601,9.431-19.207,17.975-24.962c9.694-6.53,18.208-1.616,21.713,8.883c1.431,4.288,0.506,11.699,4.362,14.637
			C424.535,354.355,429.191,350.761,429.119,346.019z"/>
		<path class="st6" d="M496.543,376.062c0.466-19.282,2.892-53.631-17.845-63.711c-22.525-10.949-45.517,11.424-52.748,31.112
			c-2.666,7.261-7.717,25.118-0.616,31.22c8.597,7.39,9.307-16.902,10.609-20.95c3.258-10.12,9.737-19.823,18.615-25.851
			c9.813-6.662,20.865-5.648,24.804,6.232c3.754,11.318,4.495,24.38,5.627,36.186c0.326,3.399,0.078,12.844,4.9,14.233
			C494.365,385.823,496.572,379.499,496.543,376.062z"/>
		<path class="st6" d="M579.316,609.512c37.084-21.385,54.246-69.046,46.773-109.968c-7.608-41.662-36.718-76.912-71.647-99.434
			c-5.09-3.281-44.557-27.653-48.271-17.2c-2.026,5.704,16.796,12.874,20.679,14.956c9.93,5.325,19.432,11.558,28.289,18.519
			c32.054,25.191,59.444,61.961,58.837,104.404c-0.324,22.636-8.59,45.84-22.91,63.407c-7.501,9.202-16.904,14.347-25.839,21.79
			C553.667,615.618,573.984,612.491,579.316,609.512z"/>
		<path class="st6" d="M275.249,605.768c-22.147,36.052-30.958,81.802-24.765,123.707c0.635,4.294,0.737,10.586,4.121,13.855
			c2.975,2.873,5.772,2.123,7.505-1.463c1.948-4.029,0.405-9.8,0.207-14.034c-0.239-5.131-0.3-10.267-0.195-15.402
			c0.43-21.034,2.769-41.839,8.299-62.174c2.978-10.95,6.463-21.849,11.129-32.206c1.634-3.627,5.931-9.402,4.368-13.702
			C283.877,598.731,277.656,602.174,275.249,605.768z"/>
		<path class="st6" d="M604.8,738.393c3.284-25.277,0.904-50.128-5.406-74.764c-2.891-11.286-6.869-22.22-12.011-32.678
			c-2.249-4.574-4.807-11.995-8.99-15.038c-4.585-3.335-8.414-1.192-8.311,4.42c0.109,5.924,4.899,13.072,6.931,18.641
			c1.64,4.494,3.152,9.033,4.603,13.591c4.191,13.162,7.562,26.449,9.366,40.161c1.445,10.99,2.382,22.096,2.708,33.177
			c0.136,4.62-1.859,14.449,2.344,17.97C600.17,747.337,604.292,742.732,604.8,738.393z"/>
		<path class="st6" d="M555.752,741.879c0.951-10.842,0.673-21.412-0.316-32.227c-0.526-5.741-1.308-11.416-2.649-17.027
			c-0.768-3.212-5.555-16.421-8.479-6.729c-1.351,4.48,1.462,13.128,2.025,17.956c0.638,5.466,1.144,10.911,1.471,16.405
			c0.269,4.531,0.538,9.063,0.807,13.594c0.164,2.759-0.649,7.935,1.501,10.09C552.028,745.862,555.555,745.028,555.752,741.879z"/>
		<path class="st6" d="M300.564,685.31c-2.691,10.999-3.657,22.012-3.735,33.313c-0.028,3.966-0.033,30.547,7.589,25.863
			c3.21-1.973,1.071-12.082,1.001-15.634c-0.134-6.932-0.284-13.831,0.14-20.758c0.323-5.292,0.73-10.587,1.126-15.875
			c0.159-2.141,1.654-7.319-0.724-8.928C303.921,681.911,301.112,682.686,300.564,685.31z"/>
		<path class="st0" d="M409.188,462.68c-0.72,17.51-11.059,43.305-32.408,42.181c-21.336-1.123-29.523-27.99-28.8-45.566
			c0.718-17.471,11.054-43.354,32.405-42.181C401.72,418.285,409.91,445.086,409.188,462.68z"/>
		<path class="st7" d="M403.992,462.68c-1.111,14.563-8.145,37.347-26.235,37.007c-17.712-0.332-24.031-21.964-24.568-36.419
			c-0.551-14.845,5.688-37.651,22.889-40.555c18.234-3.079,25.767,17.53,27.451,31.939c0.458,3.918,1.112,19.042,9.209,11.792
			c4.58-4.1,0.507-18.028-0.811-23.028c-4.403-16.702-16.354-33.248-35.598-31.405c-18.221,1.744-28.532,20.149-32.086,36.297
			c-3.613,16.418-0.703,35.656,9.713,49.181c12.91,16.764,36.214,16.117,48.723-0.711c5.783-7.779,9.119-17.38,10.786-26.856
			c0.621-3.529,2.456-9.468-1.436-11.678C408.698,456.352,404.271,459.024,403.992,462.68z"/>
		<path class="st0" d="M487.337,466.085c-0.752,17.975-11.712,43.283-33.292,42.168c-21.57-1.115-30.378-27.559-29.624-45.579
			c0.75-17.938,11.711-43.33,33.291-42.168C479.284,421.668,488.092,448.044,487.337,466.085z"/>
		<path class="st7" d="M482.143,466.085c-1.147,14.659-8.378,36.5-26.114,37.017c-18.145,0.528-25.529-20.62-26.357-35.504
			c-0.875-15.741,6.16-39.334,24.544-41.601c18.225-2.246,25.878,18.072,27.517,32.737c0.428,3.833,1.213,18.226,9.154,11.115
			c4.592-4.112,0.425-18.245-0.942-23.216c-4.562-16.59-16.434-32.336-35.318-31.288c-18.526,1.027-29.661,18.889-33.647,35.241
			c-4.11,16.866-1.113,36.818,9.963,50.57c13.272,16.482,36.675,15.763,49.463-0.835c6.147-7.977,9.662-17.964,11.324-27.815
			c0.577-3.422,2.168-8.747-1.544-10.859C486.855,459.754,482.428,462.434,482.143,466.085z"/>
		<path class="st7" d="M374.86,478.148c-13.723-0.197-13.004-36.552,5.674-33.369C396.7,447.534,390.289,478.376,374.86,478.148z"/>
		<path class="st7" d="M453.958,480.093c-14.148-0.209-13.227-36.552,5.817-33.369C476.396,449.502,469.687,480.321,453.958,480.093
			z"/>
		<path class="st5" d="M339.453,495.509c-4.923-12.313-8.248-24.29-6.65-37.657c0.757-6.326,3.493-12.231,4.332-18.449
			c0.908-6.725-3.23-4.219-5.932-0.335c-7.903,11.361-8.665,28.084-5.41,41.13c1.589,6.366,4.301,13.473,8.901,18.315
			C339.193,503.246,341.344,501.168,339.453,495.509z"/>
		<path class="st5" d="M500.14,491.36c7.548-9.012,11.17-22.701,10.776-34.34c-0.188-5.508-1.196-11.694-4.112-16.506
			c-2.25-3.711-5.389-6.503-6.371-1.044c-0.812,4.507,2.25,11.141,2.365,15.888c0.137,5.649-0.635,11.225-2.053,16.688
			c-1.466,5.646-4.267,10.987-5.562,16.65C494.036,493.701,496.504,495.868,500.14,491.36z"/>
		<path class="st5" d="M521.025,467.154c4.247-3.154,5.466-10.866,5.325-15.743c-0.093-3.247-2.102-11.821-6.681-6.633
			c-2.324,2.635-1.889,10.564-2.606,14.05C516.651,460.821,515.302,471.742,521.025,467.154z"/>
		<path class="st5" d="M318.28,475.307c0.909-6.013-0.008-12.662,0.312-18.775c0.175-3.351,0.101-12.766-5.339-7.506
			c-4.219,4.08-3.6,14.516-2.858,19.773C310.74,471.244,316.41,484.399,318.28,475.307z"/>
		<path class="st8" d="M400.072,530.084c0.865,12.075-0.86,24.475-0.678,36.592c0.086,5.733-1.181,29.744,7.615,31.091
			c12.618,1.933,16.698-52.938,15.503-61.619c-0.278-2.024-0.51-2.486-1.782-4.343c-1.19-1.739-6.759-9.376-8.561-10.189
			C408.294,519.866,402.688,527.215,400.072,530.084z"/>
		<path class="st7" d="M413.736,514.987c-5.533,0.637-16.35-1.818-15.923-9.323c0.355-6.253,9.327-8.097,14.175-8.19
			C426.57,497.193,429.082,513.224,413.736,514.987z"/>
		<path class="st7" d="M399.181,535.034c-2.661,1.986-8.049,8.45-11.716,7.675c-4.682-0.99-2.784-5.792-0.629-7.787
			c5.804-5.373,15.742-7.16,19.844-14.88c1.898-3.572-0.626-9.111,1.63-12.153c3.27-4.411,7.096,0.001,7.264,3.659
			C416.058,522.097,406.613,529.539,399.181,535.034z"/>
		<path class="st5" d="M422.934,602.563c-8.576,5.36-16.835,6.801-25.91,1.511c-1.662-0.969-4.843-4.204-6.583-2.282
			c-1.975,2.182,4.173,7.135,5.432,8.012c5.922,4.125,13.877,5.001,20.621,2.554c3.14-1.14,8.685-3.929,9.724-7.493
			C427.18,601.563,426.042,600.957,422.934,602.563z"/>
		<path class="st7" d="M428.607,532.834c2.188,1.295,7.344,1.372,8.786,3.433c1.853,2.649-0.695,6.623-3.499,6.69
			c-2.922,0.07-7.246-3.976-9.607-5.521c-3.839-2.511-7.165-5.244-10.559-8.318c-1.711-1.551-5.747-4.123-6.212-6.546
			c-0.556-2.893,2.651-5.956,5.792-4.798c2.053,0.757,3.846,5.81,5.355,7.48C421.395,528.279,425.099,530.81,428.607,532.834z"/>
		<path class="st7" d="M417.658,573.878c1.495-7.555,2.199-15.24,2.646-22.92c0.302-5.192-0.404-11.438,1.281-16.425
			c1.943-5.749,5.31-5.748,6.877,0.218c1.581,6.021-0.265,13.685-1.105,19.743c-1.722,12.403-3.333,26.502-8.649,37.958
			c-2.262,4.874-6.651,11.655-13.015,9.564c-5.93-1.948-7.141-11.013-7.772-16.179c-1.618-13.221-1.828-27.193-1.853-40.503
			c-0.004-2.712-0.106-12.686,4.884-11.016c4.141,1.386,3.076,11.76,3.036,14.902c-0.169,13.209-2.362,27.727,0.896,40.684
			C409.214,607.12,416.654,578.989,417.658,573.878z"/>
		<path class="st8" d="M125.862,270.278c-12.785,0-15.632-7.762-16.057-17.897c-0.895-21.33-0.194-42.787,0.198-64.117
			c-20.059,4.715-39.276,11.939-58.953,17.925c-7.713,2.346-15.356,4.43-22.322-1.135c-7.126-5.694-10.588-18.187-11.06-26.951
			c-0.815-15.151,8.869-19.793,21.377-23.141c12.128-3.246,24.331-6.217,36.528-9.187c10.911-2.658,22.334-4.548,33.042-7.933
			c3.815-1.205,2.697-0.237,3.975-3.358c1.596-3.898,1.779-9.291,2.567-13.407c1.901-9.93,3.802-19.86,5.704-29.79
			c0.363-1.899,0.333-3.786,1.609-4.772c1.927-1.49,8.006-1.335,10.279-1.693c6.144-0.968,37.282-8.898,39.649,0.099
			c0.805,3.058-2.41,11.174-2.936,14.056c-1.764,9.651-3.446,19.317-5.112,28.984c18.96-3.052,38.078-6.116,57.254-7.402
			c8.42-0.566,20.258-1.648,23.979,8.065c3.377,8.816-3.441,19.714-7.729,26.924c-9.163,15.409-21.17,29.445-33.258,42.614
			c-3.232,3.521-23.613,28.434-28.8,17.992c-1.551-3.124,0.271-8.436,0.922-11.513c2.776-13.129,6.662-26.018,9.99-39.01
			c-6.885,1.598-13.788,3.125-20.642,4.853c-3.92,0.989-7.261,0.943-8.714,4.256c-1.16,2.643-0.917,6.694-1.31,9.559
			c-1.842,13.404-3.7,26.805-5.608,40.198c-1.403,9.848-2.746,19.714-4.392,29.524C144.259,264.641,136.975,270.278,125.862,270.278
			z"/>
		<path class="st9" d="M164.792,85.094c4.622,0,2.593,3.055,1.926,6.465c-1.078,5.52-2.048,11.062-3.03,16.6
			c-1.461,8.238-2.892,16.482-4.302,24.729c15.112-2.523,30.281-4.798,45.497-6.604c8.781-1.042,18.463-2.838,27.333-1.935
			c11.612,1.184,11.109,10.553,7.299,19.35c-9.207,21.253-26.624,40.137-42.519,56.626c-2.551,2.646-11.653,14.523-15.966,14.296
			c-3.408-0.178-0.647-7.725-0.062-10.397c0.81-3.697,9.774-44.117,10.994-44.117c-5.38,1.658-10.993,2.663-16.472,3.938
			c-4.302,1-8.602,2.017-12.877,3.128c-1.973,0.513-5.207,0.811-6.905,1.896c-2.197,1.403-1.953,2.003-2.344,4.869
			c-2.403,17.579-4.827,35.156-7.339,52.72c-1.047,7.32-2.095,14.641-3.23,21.948c-0.733,4.719-0.758,10.42-4.576,13.787
			c-5.504,4.853-19.848,6.342-23.37-1.558c-1.884-4.226-1.075-10.618-1.162-15.102c-0.405-20.846,0.067-41.722,0.475-62.566
			c-18.001,3.875-35.472,9.661-52.923,15.456c-13.097,4.35-27.861,11.772-35.216-4.686c-4.788-10.715-8.516-27.542,5.39-32.613
			c8.004-2.919,16.699-4.554,24.947-6.624c10.988-2.758,21.995-5.434,33.009-8.085c7.416-1.785,16.485-2.582,23.506-5.608
			c4.11-1.772,3.255-3.424,4.224-8.487c1.828-9.544,3.656-19.088,5.482-28.633c0.599-3.129,0.606-9.108,2.275-11.883
			c1.521-2.531-0.214-1.225,3.434-2.352C139.174,86.289,153.421,85.094,164.792,85.094 M164.792,76.976
			c-11.327,0.103-22.78,2.252-33.937,4.032c-2.649,0.422-5.295,0.864-7.939,1.311c-5.075,0.861-4.634,0.847-5.604,5.91
			c-2.643,13.799-3.851,28.882-8.09,42.251c-1.004,3.166,0.104,2.294-2.766,3.703c-4.177,2.049-10.244,2.438-14.77,3.524
			c-11.514,2.763-23.022,5.552-34.51,8.421c-9.216,2.301-18.607,4.365-27.653,7.286c-13.434,4.337-17.618,16.741-15.348,29.897
			c3.232,18.732,14.389,33.56,34.613,27.793c19.162-5.463,37.721-12.74,57.064-17.645c-0.304,17.737-0.638,35.5-0.264,53.239
			c0.098,4.643-0.122,9.655,0.845,14.236c3.2,15.163,23.564,16.265,34.703,9.334c11.385-7.085,10.602-26.317,12.294-38.048
			c1.835-12.715,3.607-25.44,5.365-38.166c0.651-4.711,0.422-15.768,3.671-18.447c3.626-2.99,14.003-3.464,18.612-4.521
			c-2.818,10.623-5.84,21.225-8.164,31.972c-0.85,3.931-2.384,8.921-1.425,12.983c2.379,10.081,12.154,7.089,17.857,2.677
			c16.204-12.535,30.255-30.32,42.358-46.71c8.959-12.131,31.76-43.153,9.024-53.885c-9.48-4.474-23.211-1.435-33.21-0.318
			c-12.775,1.426-25.504,3.274-38.204,5.257c1.816-10.461,3.652-20.92,5.641-31.349C176.541,83.395,174.493,76.976,164.792,76.976z"
			/>
		<path class="st8" d="M334.869,235.498c-5.296,0-21.633-1.851-23.089-8.322c-0.553-2.457,1.07-5.869,1.857-8.074
			c8.456-23.715,22.139-46.173,34.183-68.135c-11.604,0.058-23.307,0.309-34.852,1.559c-6.749,0.73-6.487,2.764-7.168,9.356
			c-0.571,5.52,0.586,10.796,0.316,16.125c-0.437,8.648-17.998,8.043-24.338,8.366c-4.854,0.247-10.58,1.002-13.972-3.196
			c-2.652-3.282-2.669-8.436-2.652-12.408c0.045-10.399,2.426-21.314,6.008-31.048c1.361-3.7,2.824-8.227,6.09-10.738
			c3.135-2.41,7.971-3.112,11.699-3.89c11.412-2.382,23.149-3.42,34.743-4.439c-1.564-8.558-6.535-25.417,1.186-32.426
			c7.628-6.923,26.1-2.718,35.276-1.583c8.963,1.109,9.263,4.382,8.797,12.31c-0.37,6.283-0.738,12.565-1.107,18.849
			c9.122-0.405,22.521-3.087,31.439,0.102c8.971,3.209,7.123,14.605,4.833,21.79c-3.561,11.175-11.283,21.843-17.317,31.763
			c-8.477,13.936-17.287,27.686-26.456,41.178C354.114,221.804,347.584,235.498,334.869,235.498z"/>
		<path class="st9" d="M339.34,89.179c7.059,0.001,14.558,0.345,21.512,1.643c4.782,0.893,4.121,0.637,4.22,4.97
			c0.101,4.392-0.525,8.918-0.783,13.304c-0.139,2.382-1.907,9.622-0.687,11.69c1.799,3.051,11.578,0.77,15.341,0.651
			c5.443-0.174,13.633-1.793,18.831,0.245c7.407,2.904,3.58,14.631,1.081,20.225c-7.777,17.407-19.149,33.7-29.449,49.666
			c-5.495,8.517-11.069,16.992-16.886,25.294c-3.895,5.559-7.844,13.156-15.125,14.402c-4.687,0.803-15.988-0.646-19.843-3.844
			c-2.093-1.737-1.471-0.179-1.472-3.249c-0.002-5.943,5.811-14.406,8.304-19.564c8.433-17.451,17.63-34.544,26.922-51.549
			c0.487-0.894,3.362-4.725,2.765-5.754c-1.094-1.885-14.986-0.278-17.19-0.218c-6.681,0.181-13.369,0.457-20.032,1.005
			c-4.277,0.352-10.56-0.34-13.091,3.485c-4.814,7.277-0.712,17.614-1.883,25.294c-0.442,2.903,0.632,1.193-1.535,2.79
			c-1.687,1.242-5.937,1.232-7.855,1.521c-4.729,0.714-15.294,3.314-19.733,0.878c-7.238-3.971-2.904-20.827-1.655-26.883
			c1.652-8.003,3.386-21.258,12.084-24.42c7.382-2.682,15.797-3.342,23.537-4.282c4.893-0.594,9.8-1.092,14.708-1.545
			c6.314-0.582,7.22,0.363,6.129-5.743c-1.203-6.728-2.897-13.946-2.289-20.823C326.031,89.726,331.231,89.179,339.34,89.179
			 M339.34,81.061c-8.322-0.032-17.395,0.869-20.782,9.642c-3.124,8.092-1.084,18.078,0.356,26.309
			c-10.911,1.029-21.988,2.078-32.69,4.539c-3.87,0.891-8.487,1.814-11.695,4.352c-9.73,7.697-12.13,27.956-13.132,39.147
			c-0.75,8.38-1.107,20.475,8.15,24.428c8.47,3.617,24.474,0.777,32.965-2.022c10.975-3.617,6.42-13.837,7.143-22.933
			c0.122-1.54-0.174-6.524,0.94-7.632c1.153-1.146,7.597-0.758,9.217-0.875c7.025-0.508,14.072-0.758,21.113-0.899
			c-11.148,20.459-24.099,41.496-31.557,63.722c-3.523,10.499-0.722,14.383,10.717,17.914c11.693,3.609,23.634,4.593,31.967-5.646
			c5.029-6.181,9.385-13.019,13.831-19.618c12.378-18.368,24.543-37.047,35.235-56.458c4.577-8.309,8.633-16.201,8.835-25.95
			c0.424-20.539-24.195-16.06-37.789-15.523c0.4-6.795,1.704-14.107,1.227-20.886C372.429,79.033,349.096,81.061,339.34,81.061z"/>
		<path class="st8" d="M413.391,116.493c-7.031,0-14.775-0.238-21.696-1.611c-3.695-0.733-3.035-0.062-3.034-3.714
			c0.001-4.17,0.84-8.606,1.369-12.729c1.104-8.592,2.139-17.943,5.555-25.988c3.296-7.762,10.428-8.502,18.296-9.202
			c6.119-0.545,17.042-1.257,17.862,6.995c0.459,4.623-1.467,10.394-2.339,14.898C427.574,94.604,426.101,116.493,413.391,116.493z"
			/>
		<path class="st9" d="M419.057,67.04c7.212,0,9.14,1.763,8.224,8.281c-0.777,5.529-2.047,11.019-3.354,16.442
			c-1.273,5.281-2.521,10.722-4.488,15.8c-2.062,5.318-3.787,4.992-9.668,4.773c-3.045-0.113-14.619,0.744-16.893-1.407
			c-1.918-1.813,2.004-17.414,2.47-20.217c0.923-5.557,1.397-14.018,4.776-18.779C403.655,66.956,413.555,67.041,419.057,67.04
			 M419.057,58.921c-8.741,0.085-20.937,0.338-25.801,8.875c-6.899,12.109-7.336,29.143-8.596,42.554
			c-0.145,1.543-1.315,5.668-0.634,6.967c0.756,1.444,3.226,1.157,5.335,1.389c6.049,0.667,12.106,1.301,18.183,1.642
			c5.184,0.29,11.727,1.175,15.757-2.816c4.142-4.103,5.452-12.01,6.872-17.331c2.442-9.154,5.834-19.544,5.663-29.091
			C435.667,61.74,427.41,58.921,419.057,58.921z"/>
		<path class="st8" d="M429.419,117.345c-1.204-9.815,1.096-20.331,3.379-29.843c1.045-4.351,2.104-10.906,5.868-13.842
			c4.417-3.447,17.922-4.002,22.42-0.713c4.789,3.503,2.215,11.372,1.576,16.3c-0.941,7.262-1.132,18.112-5.456,24.432
			C452.549,120.484,436.853,117.348,429.419,117.345z"/>
		<path class="st9" d="M452.584,75.193c6.911,0,7.297,2.203,6.709,7.969c-0.57,5.59-1.351,11.181-2.374,16.707
			c-0.568,3.068-0.938,9.754-3.395,12.024c-2.559,2.364-9.591,1.282-12.909,1.333c-1.102,0.017-5.823,0.808-6.777,0.059
			c-1.068-0.84-0.347-0.706-0.782-2.467c-1.014-4.098,1.394-11.105,2.173-15.188c0.935-4.902,1.548-11.264,3.947-15.714
			C441.761,75.124,447.338,75.193,452.584,75.193 M452.587,67.074c-6.318,0.043-14.883,0.43-19.018,5.945
			c-4.179,5.572-5.048,14.457-6.306,21.056c-1.277,6.697-2.671,13.668-2.236,20.507c0.095,1.497,0.078,6.087,1.159,6.824
			c1.321,0.901,5.762,0.005,7.396-0.001c6.562-0.018,15.357,1.306,21.6-0.985c6.889-2.526,8.175-11.01,9.414-17.357
			C467.386,88.776,474.208,67.074,452.587,67.074z"/>
		<path class="st8" d="M438.292,253.631c-4.744-3.94-2.482-11.631-1.794-16.809c1.105-8.324,2.543-16.601,3.793-24.903
			c0.948-6.29,1.557-9.157-1.194-14.665c4.859-0.256,9.719-0.511,14.579-0.768c2.571-0.135,6.266,0.317,8.757-0.46
			c3.453-1.077,2.885,0.063,4.221-4.972c-10.61,0.5-21.234,0.752-31.852,1.042c-4.816,0.131-9.633,0.257-14.45,0.378
			c-1.589,0.04-5.628,0.842-7.15,0.176c-3.069-1.344-4.439-10.872-5.021-14.279c-1.257-7.34-0.397-15.655,7.59-18.57
			c10.819-3.948,25.407-2.619,36.709-2.845c13.495-0.271,27.38-0.627,40.788,1.263c3.669,0.518,8.005,0.964,10.8,3.643
			c15.965,15.304-8.53,35.083-18.892,44.281c-4.258,3.78-8.91,6.965-13.282,10.562c-4.386,3.608-6.404,9.571-9.637,14.492
			C457.939,237.768,447.99,254.824,438.292,253.631z"/>
		<path class="st9" d="M463.045,160.908c11.094,0,49.074-4.106,41.112,18.149c-3.885,10.86-17.632,20.699-26.115,27.828
			c-3.242,2.725-9.124,5.306-11.81,8.318c-2.563,2.874-4.03,8.654-6.208,12.087c-2.534,3.992-5.355,7.811-8.371,11.452
			c-1.106,1.335-9.473,12.197-11.747,10.655c-1.69-1.147,0.365-10.202,0.555-11.667c0.983-7.558,2.273-15.074,3.442-22.604
			c0.499-3.217,3.137-11.048,1.591-14.144c6.018-0.316,12.036-0.633,18.054-0.95c5.786-0.305,6.336-2.714,7.28-8.972
			c0.931-6.181-3.24-4.095-8.2-3.897c-7.62,0.305-15.245,0.518-22.869,0.733c-6.835,0.193-13.671,0.373-20.507,0.545
			c-0.797,0.02-3.147,0.527-3.908,0.096c-1.898-1.074-2.994-9.562-3.299-11.673c-1.375-9.501,2.482-13.252,11.308-14.286
			C436.473,161.041,449.857,160.908,463.045,160.908 M463.045,152.787c-14.752,0-30.779-0.672-45.289,2.39
			c-18.319,3.867-14.669,23.045-9.979,36.501c1.978,5.678,1.722,5.125,7.695,4.979c4.664-0.114,16.004-2.164,19.078,0.583
			c3.995,3.57,2.364,9.829,1.702,14.223c-1.352,8.96-2.962,17.892-4.052,26.89c-0.824,6.8-2.749,19.208,7.963,19.338
			c9.105,0.111,17.438-13.046,21.997-19.195c4.994-6.736,7.984-15.424,14.66-20.242c7.713-5.566,14.817-12.273,21.516-19.001
			c5.885-5.911,12.769-12.334,14.28-20.894C517.79,149.059,480.845,152.787,463.045,152.787z"/>
		<path class="st8" d="M588.355,247.276c-18.45,0-25.218-35.983-27.28-49.092c-1.617-10.277-2.279-21.001-0.585-31.315
			c1.174-7.138,1.587-6.672,8.401-7.573c6.031-0.798,12.199-2.091,18.273-2.416c11.544-0.619,9.432,9.653,10.015,17.787
			c0.657,9.17,1.693,21.411,5.54,29.881c1.5,3.302-0.543,2.529,3.421,3.207c2.638,0.451,5.763-0.471,8.504-0.215
			c3.824,0.359,8.37,1.443,10.152,5.259c3.16,6.766-4.455,15.409-8.672,19.824C609.111,239.967,598.952,247.276,588.355,247.276z"/>
		<path class="st9" d="M589.194,160.736c5.918,0,4.441,19.733,5.161,24.231c1.286,8.038,2.697,16.665,5.445,24.36
			c0.468,1.309,0.472,2.717,1.403,3.227c1.062,0.583,5.292-0.759,6.692-0.868c3.01-0.235,6.731-0.617,9.616,0.447
			c8.754,3.227-0.399,13.383-4.138,17.355c-5.828,6.192-15.064,13.804-24.118,13.683c-5.984-0.081-9.634-4.938-12.525-9.705
			c-9.509-15.682-13.297-36.511-13.126-54.627c0.026-2.75-0.639-12.876,1.612-14.961c0.9-0.834,5.039-0.666,6.271-0.829
			C577.385,162.268,583.28,161.384,589.194,160.736 M589.194,152.616c-6.206,0-12.681,1.578-18.813,2.388
			c-3.036,0.401-10.377,0.373-12,2.468c-1.548,1.998-1.896,8.513-2.199,10.739c-0.813,5.978-0.888,12.06-0.539,18.076
			c0.675,11.644,2.951,23.287,6.645,34.347c3.119,9.336,7.375,20.192,15.32,26.524c9.211,7.342,20.85,3.415,29.845-2.331
			c9.151-5.846,30.979-25.2,18.533-37.181c-4.883-4.701-10.838-3.089-16.753-4.2c-2.003-0.376-1.63,0.682-2.819-0.786
			c-0.87-1.074-0.941-3.759-1.274-5.185c-0.816-3.492-1.558-7.002-2.196-10.53C601.053,176.476,605.124,152.616,589.194,152.616z"/>
		<path class="st8" d="M669.242,228.41c-10.226,0-8.901-12.054-9.218-19.134c-0.46-10.276-1.081-20.525-2.457-30.727
			c-0.708-5.251-3.55-12.336-3.005-17.468c0.291-2.74-0.112-2.196,2.183-4.198c5.183-4.523,15.719-11.744,22.964-9.829
			c12.002,3.173,8.989,31.976,8.747,40.831C688.114,200.36,687.343,228.41,669.242,228.41z"/>
		<path class="st9" d="M677.732,150.91c9.146,0,6.8,31.549,6.662,36.975c-0.206,8.13-1.048,40.083-16.04,36.338
			c-4.458-1.114-3.796-5.996-4.034-9.861c-0.498-8.1-0.675-16.2-1.393-24.288c-0.517-5.83-1.211-11.641-2.118-17.423
			c-0.561-3.571-2.95-9.686-1.584-12.547C661.164,156.04,673.577,150.91,677.732,150.91 M677.732,142.791
			c-8.954,0-17.682,6.511-24.512,11.679c-3.722,2.816-3.599,2.718-2.672,7.249c1.238,6.044,2.307,12.113,3.109,18.232
			c1.521,11.592,1.845,23.198,2.558,34.847c0.576,9.4,3.174,19.04,15.023,17.522c19.317-2.475,20.727-28.673,21.211-43.456
			C692.824,177.458,696.051,142.791,677.732,142.791z"/>
		<path class="st8" d="M761.216,204.674c-4.455,0-13.324-0.231-17.322-2.835c-1.931-1.258-1.344-0.369-2.177-2.58
			c-0.77-2.044-0.44-5.485-0.51-7.651c-0.374-11.68,0.458-23.423,1.39-35.06c0.983-12.281,2.275-24.537,3.734-36.77
			c0.612-5.125,0.412-11.578,2.099-16.507c1.202-3.511-0.575-1.846,2.226-2.986c2.341-0.953,6.701,0.179,9.171,0.307
			c6.302,0.324,12.903,0.66,19.008,2.408c4.035,1.155,7.194,2.418,7.732,6.74c0.64,5.149-1.504,11.782-2.28,16.831
			c-1.593,10.362-3.279,20.711-4.981,31.056c-1.761,10.698-3.543,21.392-5.376,32.077
			C772.501,198.03,772.048,204.674,761.216,204.674z"/>
		<path class="st9" d="M752.375,104.383c6.558,0.174,13.173,0.516,19.669,1.469c5.349,0.786,10.181,0.748,10.211,6.47
			c0.033,6.498-1.969,13.596-2.977,19.995c-1.526,9.686-3.102,19.364-4.697,29.038c-1.393,8.448-2.798,16.893-4.241,25.333
			c-0.957,5.6-0.305,12.685-6.994,13.827c-3.449,0.588-13.612,0.298-16.476-2.078c-2.285-1.895-1.629-6.712-1.665-10.055
			c-0.114-10.701,0.631-21.424,1.495-32.083C748.108,138.952,750.036,121.63,752.375,104.383 M745.315,96.104
			c-2.382,17.344-4.498,34.72-6.076,52.158c-1.172,12.956-2.197,25.991-2.151,39.009c0.016,4.394,0.234,8.749,0.667,13.121
			c0.481,4.855,1.732,4.523,6.353,5.718c10.161,2.628,28.019,6.619,32.211-6.696c1.448-4.602,1.724-9.896,2.527-14.639
			c3.533-20.839,7.104-41.682,10.206-62.59c1.179-7.95,4.063-16.863-4.651-21.516C773.387,94.788,757.534,96.376,745.315,96.104z"/>
		<path class="st8" d="M749.257,249.586c-10.83,0-18.04-13.588-16.796-23.231c1.208-9.363,10.579-18.274,20.371-17.403
			C774.292,210.862,771.323,249.586,749.257,249.586z"/>
		<path class="st9" d="M751.797,212.93c16.204-0.003,14.667,29.294-0.242,32.328C733.364,248.96,730.827,212.93,751.797,212.93
			 M751.797,204.811c-13.025,0.085-24.127,12.273-23.507,25.083c0.571,11.822,10.382,25.235,23.29,23.598
			C777.354,250.223,778.44,204.811,751.797,204.811z"/>
		<path class="st6" d="M295.452,378.071c-18.66,7.9-35.597,18.497-51.487,31.043c-7.025,5.548-13.649,11.543-19.829,18.021
			c-2.819,2.954-9.022,7.892-9.955,12.046c-0.945,4.212,1.265,5.147,5.049,2.922c7.239-4.256,13.547-12.562,20.002-18.092
			c8.816-7.554,17.89-14.708,27.583-21.113c7.169-4.738,14.499-9.263,21.957-13.531c3.339-1.911,10.753-4.303,12.644-7.813
			C303.892,376.957,298.806,376.612,295.452,378.071z"/>
		<path class="st6" d="M647.629,547.606c4.467-21.471,3.205-43.258-2.669-64.359c-2.612-9.382-6.347-18.41-11.114-26.903
			c-1.402-2.498-5.16-11.205-9.018-11.205c-4.055,0-2.301,4.564-1.338,6.976c7.816,19.577,16.001,36.926,17.989,58.385
			c0.846,9.135,1.006,18.377,0.373,27.531c-0.222,3.21-2.568,10.396-0.289,13.289C644.338,554.837,646.915,551.002,647.629,547.606z
			"/>
		<path class="st6" d="M234.241,706.681c-1.901-15.569-0.785-31.451,4.186-46.365c1.988-5.966,6.828-12.626,7.857-18.599
			c1.663-9.658-6.705-1.913-8.926,1.686c-7.372,11.945-11.153,25.863-12.078,39.815c-0.43,6.494-0.006,12.994,1.214,19.388
			c0.405,2.124,0.879,8.275,4.063,8.788C233.133,711.811,234.661,708.957,234.241,706.681z"/>
		<path class="st6" d="M614.465,656.526c0.342-9.141-1.743-18.383-5.459-26.73c-1.023-2.297-3.503-8.533-6.053-9.459
			c-4.952-1.796-4.793,3.824-3.913,6.57c1.945,6.069,4.495,11.793,6.006,18.01c0.797,3.274,0.852,9.482,2.768,12.112
			C609.015,658.679,614.502,660.254,614.465,656.526z"/>
	</g>
</g>
</svg>
